<svg width="20" height="26" viewBox="0 0 20 26" fill="none" xmlns="http://www.w3.org/2000/svg">
<path fill-rule="evenodd" clip-rule="evenodd" d="M20 20.4462C20 24.6078 14.2929 25.0889 10.0013 25.0889L9.69415 25.0886C6.95985 25.082 0 24.9094 0 20.421C0 16.3443 5.47772 15.7995 9.73672 15.7789L10.3084 15.7785C13.0425 15.7852 20 15.9578 20 20.4462ZM10.0013 17.6722C4.62121 17.6722 1.89394 18.5965 1.89394 20.421C1.89394 22.2619 4.62121 23.1949 10.0013 23.1949C15.3801 23.1949 18.1061 22.2707 18.1061 20.4462C18.1061 18.6053 15.3801 17.6722 10.0013 17.6722ZM10.0013 0C13.6982 0 16.7045 3.00758 16.7045 6.70455C16.7045 10.4015 13.6982 13.4078 10.0013 13.4078H9.96086C6.27146 13.3965 3.28283 10.3876 3.29541 6.70076C3.29541 3.00758 6.30303 0 10.0013 0ZM10.0013 1.80303C7.29798 1.80303 5.09846 4.00126 5.09846 6.70455C5.08965 9.39899 7.27273 11.596 9.96465 11.6061L10.0013 12.5076V11.6061C12.7033 11.6061 14.9015 9.40657 14.9015 6.70455C14.9015 4.00126 12.7033 1.80303 10.0013 1.80303Z" fill="black"/>
</svg>
