<svg width="21" height="24" viewBox="0 0 21 24" fill="none" xmlns="http://www.w3.org/2000/svg">
<path fill-rule="evenodd" clip-rule="evenodd" d="M8.20317 21.2975C8.76326 21.9214 9.48229 22.2641 10.2284 22.2641H10.2294C10.9787 22.2641 11.701 21.9214 12.2622 21.2964C12.5628 20.9645 13.0753 20.9374 13.4072 21.2369C13.7403 21.5364 13.7673 22.05 13.4678 22.382C12.5941 23.3519 11.4448 23.886 10.2294 23.886H10.2273C9.01519 23.8849 7.86798 23.3508 6.99757 22.3809C6.69806 22.049 6.72509 21.5354 7.05812 21.2369C7.39115 20.9364 7.90366 20.9634 8.20317 21.2975ZM10.2822 0.639038C15.0884 0.639038 18.317 4.38234 18.317 7.87804C18.317 9.67617 18.7744 10.4384 19.2599 11.2472C19.7399 12.0452 20.2838 12.9513 20.2838 14.664C19.9065 19.0398 15.3382 19.3966 10.2822 19.3966C5.22626 19.3966 0.656875 19.0398 0.283828 14.7332C0.280598 12.9513 0.82447 12.0452 1.30455 11.2472L1.47403 10.9619C1.89132 10.2448 2.2474 9.46462 2.2474 7.87804C2.2474 4.38234 5.47603 0.639038 10.2822 0.639038ZM10.2822 2.26092C6.50322 2.26092 3.86928 5.2214 3.86928 7.87804C3.86928 10.126 3.2454 11.1651 2.69396 12.082C2.25173 12.8183 1.90248 13.4 1.90248 14.664C2.08305 16.7032 3.42921 17.7748 10.2822 17.7748C17.0974 17.7748 18.4857 16.6557 18.6652 14.5937C18.6619 13.4 18.3127 12.8183 17.8705 12.082C17.319 11.1651 16.6951 10.126 16.6951 7.87804C16.6951 5.2214 14.0612 2.26092 10.2822 2.26092Z" fill="black"/>
</svg>
