<svg width="21" height="25" viewBox="0 0 21 25" fill="none" xmlns="http://www.w3.org/2000/svg">
<path d="M8.00523 20.9194C8.59336 20.795 12.1771 20.795 12.7652 20.9194C13.268 21.0355 13.8117 21.3068 13.8117 21.8993C13.7825 22.4633 13.4516 22.9633 12.9944 23.2809C12.4016 23.743 11.7059 24.0357 10.9786 24.1411C10.5764 24.1932 10.1812 24.1944 9.79301 24.1411C9.06457 24.0357 8.36887 23.743 7.77723 23.2797C7.31888 22.9633 6.98798 22.4633 6.95875 21.8993C6.95875 21.3068 7.50245 21.0355 8.00523 20.9194ZM10.4547 0.651245C12.9019 0.651245 15.4018 1.81244 16.8867 3.73909C17.8502 4.97967 18.2922 6.21907 18.2922 8.14572V8.64693C18.2922 10.1245 18.6827 10.9954 19.5421 11.999C20.1934 12.7384 20.4015 13.6875 20.4015 14.7172C20.4015 15.7456 20.0636 16.722 19.3866 17.5147C18.5003 18.465 17.2504 19.0716 15.9747 19.1771C14.1261 19.3347 12.2764 19.4674 10.4021 19.4674C8.5266 19.4674 6.67802 19.388 4.82943 19.1771C3.55261 19.0716 2.30269 18.465 1.41757 17.5147C0.740571 16.722 0.401489 15.7456 0.401489 14.7172C0.401489 13.6875 0.610785 12.7384 1.26089 11.999C2.14718 10.9954 2.51198 10.1245 2.51198 8.64693V8.14572C2.51198 6.16694 3.00541 4.87303 4.02148 3.60638C5.53215 1.75912 7.95367 0.651245 10.3495 0.651245H10.4547Z" fill="black"/>
</svg>
